<svg xmlns="http://www.w3.org/2000/svg" xmlns:xlink="http://www.w3.org/1999/xlink" width="512" zoomAndPan="magnify" viewBox="0 0 384 112.499997" height="150" preserveAspectRatio="xMidYMid meet" version="1.0"><defs><g/><clipPath id="2939405982"><path d="M 10.117188 67.21875 L 52.578125 67.21875 L 52.578125 78.085938 L 10.117188 78.085938 Z M 10.117188 67.21875 " clip-rule="nonzero"/></clipPath><clipPath id="692ed05ea9"><path d="M 10.117188 11.199219 L 63.859375 11.199219 L 63.859375 78 L 10.117188 78 Z M 10.117188 11.199219 " clip-rule="nonzero"/></clipPath></defs><g clip-path="url(#2939405982)"><path fill="#004aad" d="M 52.558594 67.574219 C 49.503906 67.566406 47.832031 68.628906 46.300781 69.605469 C 44.5 70.75 42.882812 71.78125 39.535156 70.933594 C 39.464844 70.917969 39.261719 70.851562 38.957031 70.753906 C 37.242188 70.199219 32.199219 68.570312 29.332031 68.535156 C 27.925781 68.515625 27.410156 68.8125 27.40625 69.261719 C 27.390625 70.246094 29.351562 71.96875 30.511719 72.988281 C 30.816406 73.253906 31.066406 73.476562 31.222656 73.632812 C 32.328125 74.742188 32.699219 75.785156 32.566406 76.546875 C 32.496094 76.964844 32.28125 77.296875 31.957031 77.515625 C 31.636719 77.730469 31.21875 77.835938 30.730469 77.800781 C 29.519531 77.71875 27.835938 76.761719 26.222656 74.460938 C 25.703125 73.71875 25.195312 72.996094 24.65625 72.511719 C 24.152344 72.054688 23.613281 71.800781 23.003906 71.953125 C 22.039062 72.1875 21.902344 73.089844 21.75 74.082031 C 21.582031 75.179688 21.402344 76.378906 20.195312 77.09375 C 19.097656 77.742188 18.179688 77.578125 17.234375 77.40625 C 16.523438 77.28125 15.796875 77.148438 14.980469 77.398438 C 14.15625 77.652344 13.300781 77.882812 12.429688 78 C 11.664062 78.105469 10.890625 78.125 10.117188 78 L 10.371094 77.621094 C 11.039062 77.707031 11.707031 77.683594 12.375 77.59375 C 13.21875 77.480469 14.054688 77.253906 14.859375 77.007812 C 15.773438 76.726562 16.550781 76.867188 17.308594 77.003906 C 18.175781 77.160156 19.019531 77.3125 19.984375 76.738281 C 21.023438 76.125 21.191406 75.027344 21.34375 74.019531 C 21.515625 72.882812 21.671875 71.851562 22.90625 71.550781 C 23.675781 71.363281 24.328125 71.660156 24.933594 72.207031 C 25.503906 72.722656 26.027344 73.464844 26.558594 74.222656 C 28.089844 76.410156 29.652344 77.3125 30.757812 77.390625 C 31.152344 77.417969 31.484375 77.339844 31.726562 77.175781 C 31.957031 77.019531 32.109375 76.777344 32.164062 76.480469 C 32.273438 75.835938 31.929688 74.925781 30.933594 73.921875 C 30.792969 73.785156 30.542969 73.566406 30.238281 73.296875 L 30.242188 73.296875 C 29.027344 72.234375 26.980469 70.429688 26.992188 69.257812 C 27.003906 68.566406 27.628906 68.101562 29.335938 68.125 C 32.265625 68.160156 37.351562 69.804688 39.082031 70.359375 C 39.375 70.457031 39.570312 70.519531 39.632812 70.535156 C 42.8125 71.339844 44.359375 70.355469 46.082031 69.257812 C 47.054688 68.640625 48.078125 67.988281 49.464844 67.578125 C 50.492188 67.273438 51.851562 67.1875 52.558594 67.574219 " fill-opacity="1" fill-rule="nonzero"/></g><g clip-path="url(#692ed05ea9)"><path fill="#004aad" d="M 14.664062 71.15625 C 12.871094 69.226562 13.921875 65 14.566406 62.554688 C 15.457031 59.425781 16.515625 56.621094 17.648438 54.511719 C 19.460938 53.417969 26.859375 50.519531 32.210938 41.261719 L 25.863281 44.105469 C 33.683594 38.949219 38.960938 29.226562 48.722656 23.96875 C 48.722656 23.96875 42.105469 24.28125 38.59375 26.738281 C 38.59375 26.738281 42.703125 23.246094 53.070312 21.722656 L 49.195312 19.804688 L 54.480469 20.492188 C 54.480469 20.492188 57.050781 14.289062 63.917969 12.011719 C 63.917969 12.011719 39.519531 6.324219 31.332031 25.066406 C 31.332031 25.066406 32.800781 20.425781 35.054688 16.421875 C 35.054688 16.421875 23.582031 18.871094 18.078125 34.546875 C 18.078125 34.546875 19.398438 28.113281 20.796875 25.246094 C 20.796875 25.246094 13.746094 31.550781 14.042969 44.039062 C 14.042969 44.039062 12.414062 39.832031 12.847656 36.328125 C 12.847656 36.328125 7.164062 44.058594 14.210938 52.871094 C 15.128906 50.816406 24.105469 29.914062 37.9375 22.761719 C 21.421875 34.976562 12.269531 57.933594 10.117188 78 L 14.664062 71.15625 " fill-opacity="1" fill-rule="evenodd"/></g><g fill="#004aad" fill-opacity="1"><g transform="translate(55.642821, 74.294796)"><g><path d="M 22.6875 0.859375 L 4.65625 -41.703125 L 4.65625 0 L 3.890625 0 L 3.890625 -43.5 L 16.703125 -43.5 L 29.28125 -16.078125 L 40.78125 -43.5 L 52.5 -43.5 L 52.5 0 L 40.78125 0 L 40.78125 -41.546875 Z M 22.6875 0.859375 "/></g></g></g><g fill="#004aad" fill-opacity="1"><g transform="translate(112.028703, 74.294796)"><g><path d="M 9.9375 -35.96875 C 8.28125 -35.96875 6.859375 -36.5625 5.671875 -37.75 C 4.484375 -38.9375 3.890625 -40.382812 3.890625 -42.09375 C 3.890625 -43.75 4.484375 -45.171875 5.671875 -46.359375 C 6.859375 -47.554688 8.28125 -48.15625 9.9375 -48.15625 C 11.644531 -48.15625 13.09375 -47.554688 14.28125 -46.359375 C 15.476562 -45.171875 16.078125 -43.75 16.078125 -42.09375 C 16.078125 -40.382812 15.476562 -38.9375 14.28125 -37.75 C 13.09375 -36.5625 11.644531 -35.96875 9.9375 -35.96875 Z M 4.265625 0 L 4.265625 -31.6875 L 15.609375 -31.609375 L 15.609375 0 Z M 4.265625 0 "/></g></g></g><g fill="#004aad" fill-opacity="1"><g transform="translate(131.988997, 74.294796)"><g><path d="M 17.859375 0.78125 C 15.328125 0.78125 12.867188 0.378906 10.484375 -0.421875 C 8.097656 -1.222656 6.140625 -2.335938 4.609375 -3.765625 C 3.085938 -5.191406 2.328125 -6.835938 2.328125 -8.703125 C 2.328125 -10.359375 2.859375 -11.640625 3.921875 -12.546875 C 4.984375 -13.453125 6.238281 -13.90625 7.6875 -13.90625 C 9.34375 -13.90625 10.816406 -13.375 12.109375 -12.3125 C 13.410156 -11.25 14.0625 -10.046875 14.0625 -8.703125 C 12.457031 -8.703125 11.65625 -7.585938 11.65625 -5.359375 C 11.65625 -3.441406 12.285156 -2.066406 13.546875 -1.234375 C 14.816406 -0.410156 16.125 0 17.46875 0 C 18.25 0 19.09375 -0.113281 20 -0.34375 C 20.90625 -0.582031 21.679688 -1.023438 22.328125 -1.671875 C 22.972656 -2.316406 23.296875 -3.257812 23.296875 -4.5 C 23.296875 -5.800781 22.816406 -6.976562 21.859375 -8.03125 C 20.898438 -9.09375 19.65625 -10.085938 18.125 -11.015625 C 16.601562 -11.953125 14.972656 -12.882812 13.234375 -13.8125 C 11.503906 -14.75 9.875 -15.722656 8.34375 -16.734375 C 6.820312 -17.742188 5.582031 -18.84375 4.625 -20.03125 C 3.664062 -21.226562 3.1875 -22.578125 3.1875 -24.078125 C 3.1875 -26.097656 3.972656 -27.71875 5.546875 -28.9375 C 7.128906 -30.15625 9.109375 -31.035156 11.484375 -31.578125 C 13.867188 -32.117188 16.253906 -32.390625 18.640625 -32.390625 C 21.023438 -32.390625 23.222656 -32.050781 25.234375 -31.375 C 27.253906 -30.707031 28.875 -29.800781 30.09375 -28.65625 C 31.3125 -27.519531 31.921875 -26.203125 31.921875 -24.703125 C 31.921875 -22.941406 31.347656 -21.695312 30.203125 -20.96875 C 29.066406 -20.25 27.957031 -19.890625 26.875 -19.890625 C 25.476562 -19.890625 24.257812 -20.316406 23.21875 -21.171875 C 22.1875 -22.023438 21.671875 -22.992188 21.671875 -24.078125 C 21.671875 -24.078125 21.863281 -24.140625 22.25 -24.265625 C 22.632812 -24.398438 23.019531 -24.722656 23.40625 -25.234375 C 23.800781 -25.753906 24 -26.535156 24 -27.578125 C 24 -28.816406 23.492188 -29.796875 22.484375 -30.515625 C 21.472656 -31.242188 20.242188 -31.609375 18.796875 -31.609375 C 17.960938 -31.609375 17.078125 -31.453125 16.140625 -31.140625 C 15.210938 -30.835938 14.410156 -30.359375 13.734375 -29.703125 C 13.066406 -29.054688 12.734375 -28.164062 12.734375 -27.03125 C 12.734375 -25.84375 13.238281 -24.753906 14.25 -23.765625 C 15.257812 -22.785156 16.566406 -21.851562 18.171875 -20.96875 C 19.773438 -20.09375 21.46875 -19.226562 23.25 -18.375 C 25.039062 -17.519531 26.726562 -16.613281 28.3125 -15.65625 C 29.894531 -14.695312 31.1875 -13.660156 32.1875 -12.546875 C 33.195312 -11.429688 33.703125 -10.148438 33.703125 -8.703125 C 33.703125 -6.890625 32.910156 -5.269531 31.328125 -3.84375 C 29.753906 -2.414062 27.765625 -1.285156 25.359375 -0.453125 C 22.953125 0.367188 20.453125 0.78125 17.859375 0.78125 Z M 17.859375 0.78125 "/></g></g></g><g fill="#004aad" fill-opacity="1"><g transform="translate(168.02625, 74.294796)"><g><path d="M 3.890625 0 L 3.890625 -43.5 L 22.140625 -43.5 C 25.347656 -43.5 28.335938 -42.941406 31.109375 -41.828125 C 33.878906 -40.710938 36.3125 -39.15625 38.40625 -37.15625 C 40.5 -35.164062 42.140625 -32.847656 43.328125 -30.203125 C 44.523438 -27.566406 45.125 -24.75 45.125 -21.75 C 45.125 -18.75 44.523438 -15.925781 43.328125 -13.28125 C 42.140625 -10.644531 40.5 -8.328125 38.40625 -6.328125 C 36.3125 -4.335938 33.878906 -2.785156 31.109375 -1.671875 C 28.335938 -0.554688 25.347656 0 22.140625 0 Z M 15.609375 -0.78125 L 22.140625 -0.78125 C 24.316406 -0.78125 26.085938 -1.359375 27.453125 -2.515625 C 28.828125 -3.679688 29.898438 -5.257812 30.671875 -7.25 C 31.453125 -9.25 31.984375 -11.503906 32.265625 -14.015625 C 32.554688 -16.523438 32.703125 -19.101562 32.703125 -21.75 C 32.703125 -24.226562 32.546875 -26.710938 32.234375 -29.203125 C 31.921875 -31.691406 31.363281 -33.941406 30.5625 -35.953125 C 29.757812 -37.972656 28.6875 -39.601562 27.34375 -40.84375 C 26 -42.09375 24.265625 -42.71875 22.140625 -42.71875 L 15.609375 -42.71875 Z M 15.609375 -0.78125 "/></g></g></g><g fill="#004aad" fill-opacity="1"><g transform="translate(215.09215, 74.294796)"><g><path d="M 9.9375 -35.96875 C 8.28125 -35.96875 6.859375 -36.5625 5.671875 -37.75 C 4.484375 -38.9375 3.890625 -40.382812 3.890625 -42.09375 C 3.890625 -43.75 4.484375 -45.171875 5.671875 -46.359375 C 6.859375 -47.554688 8.28125 -48.15625 9.9375 -48.15625 C 11.644531 -48.15625 13.09375 -47.554688 14.28125 -46.359375 C 15.476562 -45.171875 16.078125 -43.75 16.078125 -42.09375 C 16.078125 -40.382812 15.476562 -38.9375 14.28125 -37.75 C 13.09375 -36.5625 11.644531 -35.96875 9.9375 -35.96875 Z M 4.265625 0 L 4.265625 -31.6875 L 15.609375 -31.609375 L 15.609375 0 Z M 4.265625 0 "/></g></g></g><g fill="#004aad" fill-opacity="1"><g transform="translate(235.052444, 74.294796)"><g><path d="M 19.1875 0.78125 C 16.03125 0.78125 13.144531 0.03125 10.53125 -1.46875 C 7.914062 -2.976562 5.828125 -5 4.265625 -7.53125 C 2.710938 -10.070312 1.9375 -12.867188 1.9375 -15.921875 C 1.9375 -18.972656 2.710938 -21.753906 4.265625 -24.265625 C 5.828125 -26.785156 7.914062 -28.796875 10.53125 -30.296875 C 13.144531 -31.796875 16.03125 -32.546875 19.1875 -32.546875 C 23.332031 -32.546875 26.722656 -31.429688 29.359375 -29.203125 C 32.003906 -26.972656 33.328125 -23.816406 33.328125 -19.734375 L 13.125 -19.734375 C 13.332031 -14.804688 14.40625 -11.007812 16.34375 -8.34375 C 18.289062 -5.675781 20.738281 -4.34375 23.6875 -4.34375 C 25.863281 -4.34375 27.816406 -5.117188 29.546875 -6.671875 C 31.285156 -8.234375 32.570312 -10.226562 33.40625 -12.65625 L 34.25 -12.5 C 33.425781 -8.71875 31.742188 -5.554688 29.203125 -3.015625 C 26.671875 -0.484375 23.332031 0.78125 19.1875 0.78125 Z M 13.125 -20.5 L 22.90625 -20.5 C 22.90625 -23.664062 22.582031 -26.320312 21.9375 -28.46875 C 21.289062 -30.613281 20.21875 -31.6875 18.71875 -31.6875 C 17.21875 -31.6875 15.921875 -30.613281 14.828125 -28.46875 C 13.742188 -26.320312 13.175781 -23.664062 13.125 -20.5 Z M 13.125 -20.5 "/></g></g></g><g fill="#004aad" fill-opacity="1"><g transform="translate(271.245036, 74.294796)"><g><path d="M 17.625 -30.90625 L 14.6875 -30.90625 L 14.6875 -6.609375 C 14.6875 -5.929688 14.757812 -5.320312 14.90625 -4.78125 C 15.0625 -4.238281 15.398438 -3.96875 15.921875 -3.96875 C 16.179688 -3.96875 16.414062 -4.117188 16.625 -4.421875 C 16.832031 -4.734375 16.960938 -5.460938 17.015625 -6.609375 L 17.625 -6.53125 C 17.625 -4.507812 16.910156 -2.785156 15.484375 -1.359375 C 14.066406 0.0664062 12.347656 0.78125 10.328125 0.78125 C 8.359375 0.78125 6.703125 0.09375 5.359375 -1.28125 C 4.015625 -2.65625 3.34375 -4.300781 3.34375 -6.21875 L 3.34375 -30.90625 L 0 -30.90625 L 0 -31.6875 L 3.96875 -31.6875 C 7.070312 -31.789062 9.503906 -32.851562 11.265625 -34.875 C 13.023438 -36.894531 13.90625 -39.507812 13.90625 -42.71875 L 14.6875 -42.71875 L 14.6875 -31.6875 L 17.625 -31.6875 Z M 17.625 -30.90625 "/></g></g></g><g fill="#004aad" fill-opacity="1"><g transform="translate(290.817007, 74.294796)"><g><path d="M 11.265625 0.78125 C 8.566406 0.78125 6.335938 0.0546875 4.578125 -1.390625 C 2.816406 -2.847656 1.9375 -4.613281 1.9375 -6.6875 C 1.9375 -8.695312 2.441406 -10.3125 3.453125 -11.53125 C 4.460938 -12.75 5.859375 -13.769531 7.640625 -14.59375 C 9.429688 -15.425781 11.503906 -16.269531 13.859375 -17.125 C 16.222656 -17.976562 18.75 -19.050781 21.4375 -20.34375 L 21.4375 -25.9375 C 21.4375 -27.75 20.941406 -29.132812 19.953125 -30.09375 C 18.972656 -31.050781 17.757812 -31.53125 16.3125 -31.53125 C 14.914062 -31.53125 13.6875 -31.164062 12.625 -30.4375 C 11.5625 -29.71875 11.03125 -28.453125 11.03125 -26.640625 C 11.03125 -25.453125 11.234375 -24.546875 11.640625 -23.921875 C 12.054688 -23.296875 12.472656 -22.878906 12.890625 -22.671875 C 13.304688 -22.472656 13.515625 -22.375 13.515625 -22.375 C 13.515625 -21.644531 13.097656 -20.835938 12.265625 -19.953125 C 11.441406 -19.078125 10.410156 -18.585938 9.171875 -18.484375 C 7.148438 -18.273438 5.671875 -18.765625 4.734375 -19.953125 C 3.804688 -21.148438 3.34375 -22.472656 3.34375 -23.921875 C 3.34375 -25.523438 3.921875 -26.960938 5.078125 -28.234375 C 6.242188 -29.503906 7.820312 -30.515625 9.8125 -31.265625 C 11.8125 -32.015625 14.003906 -32.390625 16.390625 -32.390625 C 21.359375 -32.390625 25.394531 -31.117188 28.5 -28.578125 C 29.851562 -27.492188 30.90625 -26.203125 31.65625 -24.703125 C 32.40625 -23.203125 32.78125 -21.46875 32.78125 -19.5 L 32.78125 -6.609375 C 32.78125 -5.929688 32.859375 -5.320312 33.015625 -4.78125 C 33.171875 -4.238281 33.503906 -3.96875 34.015625 -3.96875 C 34.273438 -3.96875 34.507812 -4.117188 34.71875 -4.421875 C 34.925781 -4.734375 35.054688 -5.460938 35.109375 -6.609375 L 35.734375 -6.53125 C 35.734375 -4.507812 35.019531 -2.785156 33.59375 -1.359375 C 32.164062 0.0664062 30.441406 0.78125 28.421875 0.78125 C 26.609375 0.78125 25.054688 0.195312 23.765625 -0.96875 C 22.472656 -2.132812 21.722656 -3.597656 21.515625 -5.359375 C 20.941406 -4.378906 20.113281 -3.421875 19.03125 -2.484375 C 17.945312 -1.554688 16.726562 -0.78125 15.375 -0.15625 C 14.03125 0.46875 12.660156 0.78125 11.265625 0.78125 Z M 16.46875 -3.65625 C 18.4375 -3.65625 20.09375 -4.484375 21.4375 -6.140625 L 21.4375 -19.65625 C 18.75 -18.101562 16.625 -16.507812 15.0625 -14.875 C 13.507812 -13.238281 12.734375 -11.050781 12.734375 -8.3125 C 12.734375 -7.125 13.082031 -6.050781 13.78125 -5.09375 C 14.476562 -4.132812 15.375 -3.65625 16.46875 -3.65625 Z M 16.46875 -3.65625 "/></g></g></g><g fill="#004aad" fill-opacity="1"><g transform="translate(328.485268, 74.294796)"><g><path d="M 17.859375 0.78125 C 15.328125 0.78125 12.867188 0.378906 10.484375 -0.421875 C 8.097656 -1.222656 6.140625 -2.335938 4.609375 -3.765625 C 3.085938 -5.191406 2.328125 -6.835938 2.328125 -8.703125 C 2.328125 -10.359375 2.859375 -11.640625 3.921875 -12.546875 C 4.984375 -13.453125 6.238281 -13.90625 7.6875 -13.90625 C 9.34375 -13.90625 10.816406 -13.375 12.109375 -12.3125 C 13.410156 -11.25 14.0625 -10.046875 14.0625 -8.703125 C 12.457031 -8.703125 11.65625 -7.585938 11.65625 -5.359375 C 11.65625 -3.441406 12.285156 -2.066406 13.546875 -1.234375 C 14.816406 -0.410156 16.125 0 17.46875 0 C 18.25 0 19.09375 -0.113281 20 -0.34375 C 20.90625 -0.582031 21.679688 -1.023438 22.328125 -1.671875 C 22.972656 -2.316406 23.296875 -3.257812 23.296875 -4.5 C 23.296875 -5.800781 22.816406 -6.976562 21.859375 -8.03125 C 20.898438 -9.09375 19.65625 -10.085938 18.125 -11.015625 C 16.601562 -11.953125 14.972656 -12.882812 13.234375 -13.8125 C 11.503906 -14.75 9.875 -15.722656 8.34375 -16.734375 C 6.820312 -17.742188 5.582031 -18.84375 4.625 -20.03125 C 3.664062 -21.226562 3.1875 -22.578125 3.1875 -24.078125 C 3.1875 -26.097656 3.972656 -27.71875 5.546875 -28.9375 C 7.128906 -30.15625 9.109375 -31.035156 11.484375 -31.578125 C 13.867188 -32.117188 16.253906 -32.390625 18.640625 -32.390625 C 21.023438 -32.390625 23.222656 -32.050781 25.234375 -31.375 C 27.253906 -30.707031 28.875 -29.800781 30.09375 -28.65625 C 31.3125 -27.519531 31.921875 -26.203125 31.921875 -24.703125 C 31.921875 -22.941406 31.347656 -21.695312 30.203125 -20.96875 C 29.066406 -20.25 27.957031 -19.890625 26.875 -19.890625 C 25.476562 -19.890625 24.257812 -20.316406 23.21875 -21.171875 C 22.1875 -22.023438 21.671875 -22.992188 21.671875 -24.078125 C 21.671875 -24.078125 21.863281 -24.140625 22.25 -24.265625 C 22.632812 -24.398438 23.019531 -24.722656 23.40625 -25.234375 C 23.800781 -25.753906 24 -26.535156 24 -27.578125 C 24 -28.816406 23.492188 -29.796875 22.484375 -30.515625 C 21.472656 -31.242188 20.242188 -31.609375 18.796875 -31.609375 C 17.960938 -31.609375 17.078125 -31.453125 16.140625 -31.140625 C 15.210938 -30.835938 14.410156 -30.359375 13.734375 -29.703125 C 13.066406 -29.054688 12.734375 -28.164062 12.734375 -27.03125 C 12.734375 -25.84375 13.238281 -24.753906 14.25 -23.765625 C 15.257812 -22.785156 16.566406 -21.851562 18.171875 -20.96875 C 19.773438 -20.09375 21.46875 -19.226562 23.25 -18.375 C 25.039062 -17.519531 26.726562 -16.613281 28.3125 -15.65625 C 29.894531 -14.695312 31.1875 -13.660156 32.1875 -12.546875 C 33.195312 -11.429688 33.703125 -10.148438 33.703125 -8.703125 C 33.703125 -6.890625 32.910156 -5.269531 31.328125 -3.84375 C 29.753906 -2.414062 27.765625 -1.285156 25.359375 -0.453125 C 22.953125 0.367188 20.453125 0.78125 17.859375 0.78125 Z M 17.859375 0.78125 "/></g></g></g></svg>