<svg xmlns="http://www.w3.org/2000/svg" xmlns:xlink="http://www.w3.org/1999/xlink" width="500" zoomAndPan="magnify" viewBox="0 0 375 374.999991" height="500" preserveAspectRatio="xMidYMid meet" version="1.0"><defs><clipPath id="c206ee9466"><path d="M 37.617188 314.070312 L 275.667969 314.070312 L 275.667969 375 L 37.617188 375 Z M 37.617188 314.070312 " clip-rule="nonzero"/></clipPath><clipPath id="e077819c52"><path d="M 37.617188 0 L 339.234375 0 L 339.234375 374.554688 L 37.617188 374.554688 Z M 37.617188 0 " clip-rule="nonzero"/></clipPath></defs><g clip-path="url(#c206ee9466)"><path fill="#004aad" d="M 275.550781 316.058594 C 258.421875 316.027344 249.058594 321.984375 240.480469 327.445312 C 230.371094 333.878906 221.308594 339.644531 202.539062 334.898438 C 202.144531 334.796875 201.003906 334.433594 199.296875 333.878906 C 189.6875 330.777344 161.40625 321.644531 145.34375 321.445312 C 137.457031 321.347656 134.5625 323.015625 134.53125 325.527344 C 134.464844 331.046875 145.453125 340.710938 151.949219 346.417969 L 151.957031 346.417969 C 153.65625 347.914062 155.058594 349.144531 155.945312 350.035156 C 162.128906 356.238281 164.21875 362.101562 163.480469 366.378906 C 163.082031 368.703125 161.875 370.566406 160.046875 371.804688 C 158.265625 373.003906 155.917969 373.589844 153.179688 373.402344 C 146.386719 372.929688 136.949219 367.582031 127.898438 354.664062 C 124.988281 350.511719 122.140625 346.464844 119.125 343.738281 C 116.289062 341.171875 113.273438 339.765625 109.851562 340.609375 C 104.449219 341.925781 103.675781 346.976562 102.828125 352.542969 C 101.894531 358.703125 100.871094 365.417969 94.105469 369.433594 C 87.964844 373.074219 82.820312 372.148438 77.515625 371.195312 C 73.535156 370.480469 69.457031 369.75 64.875 371.152344 C 60.257812 372.570312 55.453125 373.855469 50.570312 374.527344 C 46.289062 375.109375 41.953125 375.210938 37.617188 374.503906 L 39.023438 372.386719 C 42.769531 372.875 46.535156 372.75 50.257812 372.242188 C 55.003906 371.59375 59.691406 370.332031 64.207031 368.949219 C 69.316406 367.386719 73.671875 368.167969 77.921875 368.929688 C 82.792969 369.808594 87.519531 370.65625 92.933594 367.445312 C 98.753906 363.996094 99.6875 357.839844 100.546875 352.203125 C 101.515625 345.832031 102.394531 340.050781 109.3125 338.367188 C 113.617188 337.316406 117.28125 338.96875 120.671875 342.03125 C 123.878906 344.929688 126.804688 349.085938 129.785156 353.34375 C 138.375 365.609375 147.125 370.667969 153.328125 371.097656 C 155.539062 371.253906 157.394531 370.804688 158.753906 369.890625 C 160.054688 369.007812 160.917969 367.667969 161.207031 365.988281 C 161.828125 362.378906 159.910156 357.273438 154.3125 351.660156 C 153.535156 350.882812 152.136719 349.648438 150.425781 348.152344 L 150.433594 348.148438 C 143.636719 342.179688 132.144531 332.078125 132.230469 325.5 C 132.277344 321.617188 135.796875 319.027344 145.371094 319.144531 C 161.789062 319.347656 190.308594 328.558594 199.996094 331.6875 C 201.640625 332.214844 202.730469 332.566406 203.097656 332.660156 C 220.914062 337.167969 229.582031 331.652344 239.242188 325.507812 C 244.691406 322.039062 250.449219 318.378906 258.214844 316.078125 C 263.976562 314.382812 271.597656 313.890625 275.550781 316.058594 " fill-opacity="1" fill-rule="nonzero"/></g><g clip-path="url(#e077819c52)"><path fill="#004aad" d="M 63.105469 336.152344 C 53.039062 325.320312 58.933594 301.621094 62.550781 287.917969 C 67.539062 270.386719 73.488281 254.652344 79.824219 242.832031 C 89.996094 236.699219 131.472656 220.4375 161.472656 168.539062 L 125.886719 184.488281 C 169.746094 155.582031 199.320312 101.0625 254.050781 71.585938 C 254.050781 71.585938 216.960938 73.328125 197.265625 87.105469 C 197.265625 87.105469 220.292969 67.539062 278.4375 59 L 256.710938 48.242188 L 286.339844 52.097656 C 286.339844 52.097656 300.746094 17.3125 339.238281 4.550781 C 339.238281 4.550781 202.457031 -27.339844 156.542969 77.746094 C 156.542969 77.746094 164.789062 51.714844 177.414062 29.28125 C 177.414062 29.28125 113.101562 43.015625 82.234375 130.886719 C 82.234375 130.886719 89.636719 94.824219 97.484375 78.746094 C 97.484375 78.746094 57.960938 114.089844 59.621094 184.109375 C 59.621094 184.109375 50.480469 160.519531 52.914062 140.871094 C 52.914062 140.871094 21.0625 184.226562 60.554688 233.628906 C 65.71875 222.101562 116.03125 104.921875 193.59375 64.820312 C 101 133.308594 49.675781 262.007812 37.617188 374.507812 L 63.105469 336.152344 " fill-opacity="1" fill-rule="evenodd"/></g><path stroke-linecap="butt" transform="matrix(0.453812, -0.597122, 0.597122, 0.453812, 106.232443, 127.842589)" fill="none" stroke-linejoin="miter" d="M -0.000502966 1.998867 L 9.838238 1.998701 " stroke="#004aad" stroke-width="4" stroke-opacity="1" stroke-miterlimit="4"/></svg>