<svg xmlns="http://www.w3.org/2000/svg" xmlns:xlink="http://www.w3.org/1999/xlink" width="512" zoomAndPan="magnify" viewBox="0 0 384 112.499997" height="150" preserveAspectRatio="xMidYMid meet" version="1.0"><defs><g/></defs><g fill="#004aad" fill-opacity="1"><g transform="translate(6.123, 78.188343)"><g><path d="M 27.296875 1.03125 L 5.609375 -50.203125 L 5.609375 0 L 4.671875 0 L 4.671875 -52.34375 L 20.09375 -52.34375 L 35.25 -19.34375 L 49.078125 -52.34375 L 63.203125 -52.34375 L 63.203125 0 L 49.078125 0 L 49.078125 -50.015625 Z M 27.296875 1.03125 "/></g></g></g><g fill="#004aad" fill-opacity="1"><g transform="translate(73.985918, 78.188343)"><g><path d="M 11.96875 -43.28125 C 9.96875 -43.28125 8.25 -43.992188 6.8125 -45.421875 C 5.382812 -46.859375 4.671875 -48.609375 4.671875 -50.671875 C 4.671875 -52.660156 5.382812 -54.367188 6.8125 -55.796875 C 8.25 -57.234375 9.96875 -57.953125 11.96875 -57.953125 C 14.019531 -57.953125 15.757812 -57.234375 17.1875 -55.796875 C 18.625 -54.367188 19.34375 -52.660156 19.34375 -50.671875 C 19.34375 -48.609375 18.625 -46.859375 17.1875 -45.421875 C 15.757812 -43.992188 14.019531 -43.28125 11.96875 -43.28125 Z M 5.140625 0 L 5.140625 -38.140625 L 18.796875 -38.046875 L 18.796875 0 Z M 5.140625 0 "/></g></g></g><g fill="#004aad" fill-opacity="1"><g transform="translate(98.009014, 78.188343)"><g><path d="M 21.5 0.9375 C 18.445312 0.9375 15.484375 0.453125 12.609375 -0.515625 C 9.742188 -1.484375 7.390625 -2.820312 5.546875 -4.53125 C 3.710938 -6.25 2.796875 -8.226562 2.796875 -10.46875 C 2.796875 -12.46875 3.4375 -14.007812 4.71875 -15.09375 C 6 -16.1875 7.507812 -16.734375 9.25 -16.734375 C 11.25 -16.734375 13.023438 -16.09375 14.578125 -14.8125 C 16.140625 -13.539062 16.921875 -12.09375 16.921875 -10.46875 C 14.984375 -10.46875 14.015625 -9.128906 14.015625 -6.453125 C 14.015625 -4.140625 14.78125 -2.484375 16.3125 -1.484375 C 17.84375 -0.492188 19.414062 0 21.03125 0 C 21.96875 0 22.976562 -0.140625 24.0625 -0.421875 C 25.15625 -0.703125 26.09375 -1.226562 26.875 -2 C 27.65625 -2.78125 28.046875 -3.921875 28.046875 -5.421875 C 28.046875 -6.984375 27.46875 -8.398438 26.3125 -9.671875 C 25.164062 -10.953125 23.671875 -12.148438 21.828125 -13.265625 C 19.992188 -14.390625 18.03125 -15.515625 15.9375 -16.640625 C 13.851562 -17.765625 11.890625 -18.929688 10.046875 -20.140625 C 8.210938 -21.359375 6.71875 -22.679688 5.5625 -24.109375 C 4.40625 -25.546875 3.828125 -27.171875 3.828125 -28.984375 C 3.828125 -31.410156 4.773438 -33.351562 6.671875 -34.8125 C 8.578125 -36.28125 10.960938 -37.34375 13.828125 -38 C 16.703125 -38.65625 19.570312 -38.984375 22.4375 -38.984375 C 25.300781 -38.984375 27.945312 -38.578125 30.375 -37.765625 C 32.8125 -36.953125 34.757812 -35.859375 36.21875 -34.484375 C 37.6875 -33.117188 38.421875 -31.535156 38.421875 -29.734375 C 38.421875 -27.609375 37.734375 -26.109375 36.359375 -25.234375 C 34.992188 -24.367188 33.65625 -23.9375 32.34375 -23.9375 C 30.664062 -23.9375 29.203125 -24.445312 27.953125 -25.46875 C 26.703125 -26.5 26.078125 -27.671875 26.078125 -28.984375 C 26.078125 -28.984375 26.3125 -29.0625 26.78125 -29.21875 C 27.25 -29.375 27.71875 -29.757812 28.1875 -30.375 C 28.65625 -31 28.890625 -31.9375 28.890625 -33.1875 C 28.890625 -34.6875 28.28125 -35.867188 27.0625 -36.734375 C 25.84375 -37.609375 24.363281 -38.046875 22.625 -38.046875 C 21.625 -38.046875 20.5625 -37.859375 19.4375 -37.484375 C 18.320312 -37.109375 17.359375 -36.53125 16.546875 -35.75 C 15.734375 -34.976562 15.328125 -33.90625 15.328125 -32.53125 C 15.328125 -31.09375 15.9375 -29.78125 17.15625 -28.59375 C 18.375 -27.414062 19.945312 -26.296875 21.875 -25.234375 C 23.800781 -24.179688 25.835938 -23.140625 27.984375 -22.109375 C 30.140625 -21.078125 32.164062 -19.984375 34.0625 -18.828125 C 35.96875 -17.679688 37.53125 -16.4375 38.75 -15.09375 C 39.96875 -13.757812 40.578125 -12.21875 40.578125 -10.46875 C 40.578125 -8.289062 39.625 -6.34375 37.71875 -4.625 C 35.820312 -2.914062 33.421875 -1.5625 30.515625 -0.5625 C 27.617188 0.4375 24.613281 0.9375 21.5 0.9375 Z M 21.5 0.9375 "/></g></g></g><g fill="#004aad" fill-opacity="1"><g transform="translate(141.381465, 78.188343)"><g><path d="M 4.671875 0 L 4.671875 -52.34375 L 26.640625 -52.34375 C 30.503906 -52.34375 34.101562 -51.671875 37.4375 -50.328125 C 40.769531 -48.992188 43.695312 -47.128906 46.21875 -44.734375 C 48.75 -42.335938 50.726562 -39.546875 52.15625 -36.359375 C 53.59375 -33.179688 54.3125 -29.785156 54.3125 -26.171875 C 54.3125 -22.554688 53.59375 -19.160156 52.15625 -15.984375 C 50.726562 -12.804688 48.75 -10.015625 46.21875 -7.609375 C 43.695312 -5.210938 40.769531 -3.34375 37.4375 -2 C 34.101562 -0.664062 30.503906 0 26.640625 0 Z M 18.796875 -0.9375 L 26.640625 -0.9375 C 29.253906 -0.9375 31.390625 -1.632812 33.046875 -3.03125 C 34.703125 -4.4375 35.992188 -6.335938 36.921875 -8.734375 C 37.859375 -11.140625 38.5 -13.851562 38.84375 -16.875 C 39.1875 -19.894531 39.359375 -22.992188 39.359375 -26.171875 C 39.359375 -29.160156 39.171875 -32.148438 38.796875 -35.140625 C 38.421875 -38.140625 37.75 -40.851562 36.78125 -43.28125 C 35.820312 -45.707031 34.53125 -47.671875 32.90625 -49.171875 C 31.28125 -50.671875 29.191406 -51.421875 26.640625 -51.421875 L 18.796875 -51.421875 Z M 18.796875 -0.9375 "/></g></g></g><g fill="#004aad" fill-opacity="1"><g transform="translate(198.027357, 78.188343)"><g><path d="M 11.96875 -43.28125 C 9.96875 -43.28125 8.25 -43.992188 6.8125 -45.421875 C 5.382812 -46.859375 4.671875 -48.609375 4.671875 -50.671875 C 4.671875 -52.660156 5.382812 -54.367188 6.8125 -55.796875 C 8.25 -57.234375 9.96875 -57.953125 11.96875 -57.953125 C 14.019531 -57.953125 15.757812 -57.234375 17.1875 -55.796875 C 18.625 -54.367188 19.34375 -52.660156 19.34375 -50.671875 C 19.34375 -48.609375 18.625 -46.859375 17.1875 -45.421875 C 15.757812 -43.992188 14.019531 -43.28125 11.96875 -43.28125 Z M 5.140625 0 L 5.140625 -38.140625 L 18.796875 -38.046875 L 18.796875 0 Z M 5.140625 0 "/></g></g></g><g fill="#004aad" fill-opacity="1"><g transform="translate(222.050454, 78.188343)"><g><path d="M 23.09375 0.9375 C 19.289062 0.9375 15.816406 0.0351562 12.671875 -1.765625 C 9.523438 -3.578125 7.015625 -6.007812 5.140625 -9.0625 C 3.273438 -12.125 2.34375 -15.492188 2.34375 -19.171875 C 2.34375 -22.847656 3.273438 -26.195312 5.140625 -29.21875 C 7.015625 -32.238281 9.523438 -34.648438 12.671875 -36.453125 C 15.816406 -38.265625 19.289062 -39.171875 23.09375 -39.171875 C 28.070312 -39.171875 32.148438 -37.828125 35.328125 -35.140625 C 38.515625 -32.460938 40.109375 -28.664062 40.109375 -23.75 L 15.796875 -23.75 C 16.046875 -17.820312 17.335938 -13.253906 19.671875 -10.046875 C 22.015625 -6.835938 24.960938 -5.234375 28.515625 -5.234375 C 31.128906 -5.234375 33.476562 -6.164062 35.5625 -8.03125 C 37.65625 -9.90625 39.203125 -12.304688 40.203125 -15.234375 L 41.234375 -15.046875 C 40.234375 -10.503906 38.203125 -6.703125 35.140625 -3.640625 C 32.085938 -0.585938 28.070312 0.9375 23.09375 0.9375 Z M 15.796875 -24.6875 L 27.578125 -24.6875 C 27.578125 -28.476562 27.1875 -31.664062 26.40625 -34.25 C 25.625 -36.84375 24.332031 -38.140625 22.53125 -38.140625 C 20.71875 -38.140625 19.15625 -36.84375 17.84375 -34.25 C 16.539062 -31.664062 15.859375 -28.476562 15.796875 -24.6875 Z M 15.796875 -24.6875 "/></g></g></g><g fill="#004aad" fill-opacity="1"><g transform="translate(265.609859, 78.188343)"><g><path d="M 21.21875 -37.203125 L 17.671875 -37.203125 L 17.671875 -7.953125 C 17.671875 -7.140625 17.765625 -6.40625 17.953125 -5.75 C 18.140625 -5.09375 18.546875 -4.765625 19.171875 -4.765625 C 19.472656 -4.765625 19.75 -4.953125 20 -5.328125 C 20.25 -5.703125 20.40625 -6.578125 20.46875 -7.953125 L 21.21875 -7.859375 C 21.21875 -5.421875 20.359375 -3.34375 18.640625 -1.625 C 16.929688 0.0820312 14.863281 0.9375 12.4375 0.9375 C 10.0625 0.9375 8.0625 0.113281 6.4375 -1.53125 C 4.820312 -3.1875 4.015625 -5.171875 4.015625 -7.484375 L 4.015625 -37.203125 L 0 -37.203125 L 0 -38.140625 L 4.765625 -38.140625 C 8.503906 -38.265625 11.429688 -39.539062 13.546875 -41.96875 C 15.671875 -44.40625 16.734375 -47.554688 16.734375 -51.421875 L 17.671875 -51.421875 L 17.671875 -38.140625 L 21.21875 -38.140625 Z M 21.21875 -37.203125 "/></g></g></g><g fill="#004aad" fill-opacity="1"><g transform="translate(289.165596, 78.188343)"><g><path d="M 13.5625 0.9375 C 10.3125 0.9375 7.628906 0.0664062 5.515625 -1.671875 C 3.398438 -3.421875 2.34375 -5.546875 2.34375 -8.046875 C 2.34375 -10.472656 2.945312 -12.414062 4.15625 -13.875 C 5.375 -15.34375 7.054688 -16.578125 9.203125 -17.578125 C 11.359375 -18.578125 13.851562 -19.585938 16.6875 -20.609375 C 19.519531 -21.640625 22.554688 -22.9375 25.796875 -24.5 L 25.796875 -31.21875 C 25.796875 -33.40625 25.203125 -35.070312 24.015625 -36.21875 C 22.835938 -37.375 21.375 -37.953125 19.625 -37.953125 C 17.945312 -37.953125 16.46875 -37.515625 15.1875 -36.640625 C 13.914062 -35.773438 13.28125 -34.25 13.28125 -32.0625 C 13.28125 -30.632812 13.523438 -29.546875 14.015625 -28.796875 C 14.515625 -28.046875 15.015625 -27.546875 15.515625 -27.296875 C 16.015625 -27.046875 16.265625 -26.921875 16.265625 -26.921875 C 16.265625 -26.046875 15.765625 -25.078125 14.765625 -24.015625 C 13.773438 -22.960938 12.53125 -22.375 11.03125 -22.25 C 8.601562 -22 6.828125 -22.585938 5.703125 -24.015625 C 4.578125 -25.453125 4.015625 -27.046875 4.015625 -28.796875 C 4.015625 -30.722656 4.71875 -32.445312 6.125 -33.96875 C 7.53125 -35.5 9.429688 -36.71875 11.828125 -37.625 C 14.222656 -38.53125 16.851562 -38.984375 19.71875 -38.984375 C 25.707031 -38.984375 30.570312 -37.457031 34.3125 -34.40625 C 35.925781 -33.09375 37.1875 -31.53125 38.09375 -29.71875 C 39 -27.914062 39.453125 -25.832031 39.453125 -23.46875 L 39.453125 -7.953125 C 39.453125 -7.140625 39.546875 -6.40625 39.734375 -5.75 C 39.921875 -5.09375 40.328125 -4.765625 40.953125 -4.765625 C 41.253906 -4.765625 41.53125 -4.953125 41.78125 -5.328125 C 42.03125 -5.703125 42.1875 -6.578125 42.25 -7.953125 L 43 -7.859375 C 43 -5.421875 42.140625 -3.34375 40.421875 -1.625 C 38.710938 0.0820312 36.644531 0.9375 34.21875 0.9375 C 32.03125 0.9375 30.15625 0.238281 28.59375 -1.15625 C 27.039062 -2.5625 26.140625 -4.328125 25.890625 -6.453125 C 25.203125 -5.265625 24.203125 -4.109375 22.890625 -2.984375 C 21.585938 -1.867188 20.125 -0.9375 18.5 -0.1875 C 16.882812 0.5625 15.238281 0.9375 13.5625 0.9375 Z M 19.8125 -4.390625 C 22.1875 -4.390625 24.179688 -5.390625 25.796875 -7.390625 L 25.796875 -23.65625 C 22.554688 -21.78125 20 -19.859375 18.125 -17.890625 C 16.257812 -15.929688 15.328125 -13.300781 15.328125 -10 C 15.328125 -8.570312 15.75 -7.28125 16.59375 -6.125 C 17.4375 -4.96875 18.507812 -4.390625 19.8125 -4.390625 Z M 19.8125 -4.390625 "/></g></g></g><g fill="#004aad" fill-opacity="1"><g transform="translate(334.501013, 78.188343)"><g><path d="M 21.5 0.9375 C 18.445312 0.9375 15.484375 0.453125 12.609375 -0.515625 C 9.742188 -1.484375 7.390625 -2.820312 5.546875 -4.53125 C 3.710938 -6.25 2.796875 -8.226562 2.796875 -10.46875 C 2.796875 -12.46875 3.4375 -14.007812 4.71875 -15.09375 C 6 -16.1875 7.507812 -16.734375 9.25 -16.734375 C 11.25 -16.734375 13.023438 -16.09375 14.578125 -14.8125 C 16.140625 -13.539062 16.921875 -12.09375 16.921875 -10.46875 C 14.984375 -10.46875 14.015625 -9.128906 14.015625 -6.453125 C 14.015625 -4.140625 14.78125 -2.484375 16.3125 -1.484375 C 17.84375 -0.492188 19.414062 0 21.03125 0 C 21.96875 0 22.976562 -0.140625 24.0625 -0.421875 C 25.15625 -0.703125 26.09375 -1.226562 26.875 -2 C 27.65625 -2.78125 28.046875 -3.921875 28.046875 -5.421875 C 28.046875 -6.984375 27.46875 -8.398438 26.3125 -9.671875 C 25.164062 -10.953125 23.671875 -12.148438 21.828125 -13.265625 C 19.992188 -14.390625 18.03125 -15.515625 15.9375 -16.640625 C 13.851562 -17.765625 11.890625 -18.929688 10.046875 -20.140625 C 8.210938 -21.359375 6.71875 -22.679688 5.5625 -24.109375 C 4.40625 -25.546875 3.828125 -27.171875 3.828125 -28.984375 C 3.828125 -31.410156 4.773438 -33.351562 6.671875 -34.8125 C 8.578125 -36.28125 10.960938 -37.34375 13.828125 -38 C 16.703125 -38.65625 19.570312 -38.984375 22.4375 -38.984375 C 25.300781 -38.984375 27.945312 -38.578125 30.375 -37.765625 C 32.8125 -36.953125 34.757812 -35.859375 36.21875 -34.484375 C 37.6875 -33.117188 38.421875 -31.535156 38.421875 -29.734375 C 38.421875 -27.609375 37.734375 -26.109375 36.359375 -25.234375 C 34.992188 -24.367188 33.65625 -23.9375 32.34375 -23.9375 C 30.664062 -23.9375 29.203125 -24.445312 27.953125 -25.46875 C 26.703125 -26.5 26.078125 -27.671875 26.078125 -28.984375 C 26.078125 -28.984375 26.3125 -29.0625 26.78125 -29.21875 C 27.25 -29.375 27.71875 -29.757812 28.1875 -30.375 C 28.65625 -31 28.890625 -31.9375 28.890625 -33.1875 C 28.890625 -34.6875 28.28125 -35.867188 27.0625 -36.734375 C 25.84375 -37.609375 24.363281 -38.046875 22.625 -38.046875 C 21.625 -38.046875 20.5625 -37.859375 19.4375 -37.484375 C 18.320312 -37.109375 17.359375 -36.53125 16.546875 -35.75 C 15.734375 -34.976562 15.328125 -33.90625 15.328125 -32.53125 C 15.328125 -31.09375 15.9375 -29.78125 17.15625 -28.59375 C 18.375 -27.414062 19.945312 -26.296875 21.875 -25.234375 C 23.800781 -24.179688 25.835938 -23.140625 27.984375 -22.109375 C 30.140625 -21.078125 32.164062 -19.984375 34.0625 -18.828125 C 35.96875 -17.679688 37.53125 -16.4375 38.75 -15.09375 C 39.96875 -13.757812 40.578125 -12.21875 40.578125 -10.46875 C 40.578125 -8.289062 39.625 -6.34375 37.71875 -4.625 C 35.820312 -2.914062 33.421875 -1.5625 30.515625 -0.5625 C 27.617188 0.4375 24.613281 0.9375 21.5 0.9375 Z M 21.5 0.9375 "/></g></g></g></svg>